<svg width="156" height="128" viewBox="0 0 156 128" fill="none" xmlns="http://www.w3.org/2000/svg">
<path d="M55.492 88.4307V102.189H53.2751L46.7921 92.8176H46.6779V102.189H44.1855V88.4307H46.4159L52.8921 97.8091H53.0131V88.4307H55.492Z" fill="black"/>
<path d="M58.1003 102.189V91.8704H60.5322V102.189H58.1003ZM59.323 90.4058C58.9378 90.4058 58.6064 90.2782 58.3287 90.0229C58.051 89.7631 57.9122 89.4519 57.9122 89.0891C57.9122 88.7218 58.051 88.4106 58.3287 88.1553C58.6064 87.8955 58.9378 87.7656 59.323 87.7656C59.7126 87.7656 60.0441 87.8955 60.3173 88.1553C60.5949 88.4106 60.7338 88.7218 60.7338 89.0891C60.7338 89.4519 60.5949 89.7631 60.3173 90.0229C60.0441 90.2782 59.7126 90.4058 59.323 90.4058Z" fill="black"/>
<path d="M63.033 102.189V91.8704H65.3575V93.6238H65.4784C65.6934 93.0326 66.0494 92.5713 66.5466 92.2398C67.0437 91.9039 67.6371 91.736 68.3269 91.736C69.0255 91.736 69.6145 91.9062 70.0937 92.2466C70.5774 92.5825 70.9178 93.0415 71.1148 93.6238H71.2223C71.4507 93.0505 71.8359 92.5937 72.3778 92.2533C72.9242 91.9084 73.5714 91.736 74.3193 91.736C75.2688 91.736 76.0436 92.0361 76.6438 92.6362C77.2439 93.2364 77.544 94.1119 77.544 95.263V102.189H75.1054V95.6392C75.1054 94.9987 74.9352 94.5307 74.5948 94.2351C74.2544 93.935 73.8379 93.785 73.3452 93.785C72.7585 93.785 72.2995 93.9686 71.968 94.3359C71.6411 94.6987 71.4776 95.1712 71.4776 95.7534V102.189H69.0927V95.5384C69.0927 95.0054 68.9315 94.58 68.609 94.262C68.291 93.944 67.8745 93.785 67.3594 93.785C67.0101 93.785 66.6921 93.8746 66.4055 94.0537C66.1189 94.2284 65.8904 94.477 65.7202 94.7994C65.5501 95.1174 65.465 95.4891 65.465 95.9146V102.189H63.033Z" fill="black"/>
<path d="M80.1187 102.189V88.4307H82.5506V93.5767H82.6514C82.7768 93.3259 82.9537 93.0594 83.1821 92.7773C83.4105 92.4907 83.7196 92.2466 84.1092 92.045C84.4989 91.839 84.996 91.736 85.6006 91.736C86.3978 91.736 87.1167 91.9398 87.7571 92.3473C88.4021 92.7504 88.9126 93.3483 89.2888 94.1411C89.6695 94.9293 89.8599 95.8967 89.8599 97.0432C89.8599 98.1764 89.674 99.1393 89.3023 99.932C88.9305 100.725 88.4244 101.329 87.784 101.746C87.1435 102.162 86.418 102.371 85.6073 102.371C85.0162 102.371 84.5257 102.272 84.1361 102.075C83.7465 101.878 83.4329 101.641 83.1956 101.363C82.9627 101.081 82.7813 100.814 82.6514 100.564H82.5103V102.189H80.1187ZM82.5036 97.0298C82.5036 97.6971 82.5977 98.2816 82.7858 98.7832C82.9784 99.2848 83.2538 99.6767 83.6121 99.9589C83.9749 100.237 84.4138 100.375 84.9288 100.375C85.4663 100.375 85.9164 100.232 86.2792 99.9454C86.6419 99.6543 86.9151 99.258 87.0988 98.7564C87.2869 98.2503 87.3809 97.6747 87.3809 97.0298C87.3809 96.3894 87.2891 95.8206 87.1055 95.3234C86.9218 94.8263 86.6486 94.4366 86.2859 94.1545C85.9231 93.8723 85.4707 93.7313 84.9288 93.7313C84.4093 93.7313 83.9681 93.8679 83.6054 94.1411C83.2426 94.4143 82.9672 94.7972 82.7791 95.2898C82.5954 95.7825 82.5036 96.3625 82.5036 97.0298Z" fill="black"/>
<path d="M98.5043 97.8494V91.8704H100.936V102.189H98.5782V100.355H98.4707C98.2378 100.933 97.8549 101.406 97.3219 101.773C96.7935 102.14 96.1418 102.324 95.367 102.324C94.6907 102.324 94.0928 102.174 93.5733 101.874C93.0582 101.569 92.6551 101.128 92.364 100.55C92.0729 99.9678 91.9274 99.2647 91.9274 98.4406V91.8704H94.3593V98.0644C94.3593 98.7183 94.5384 99.2378 94.8967 99.623C95.255 100.008 95.7253 100.201 96.3075 100.201C96.6658 100.201 97.0129 100.113 97.3488 99.9387C97.6847 99.7641 97.9602 99.5043 98.1751 99.1594C98.3946 98.8101 98.5043 98.3734 98.5043 97.8494Z" fill="black"/>
<path d="M111.593 94.5979L109.376 94.8397C109.313 94.6158 109.203 94.4053 109.047 94.2082C108.894 94.0112 108.688 93.8522 108.429 93.7313C108.169 93.6103 107.851 93.5499 107.475 93.5499C106.968 93.5499 106.543 93.6596 106.198 93.879C105.858 94.0985 105.69 94.3829 105.694 94.7322C105.69 95.0323 105.8 95.2764 106.023 95.4645C106.252 95.6526 106.628 95.8071 107.152 95.9281L108.912 96.3043C109.889 96.5148 110.614 96.8484 111.089 97.3053C111.568 97.7621 111.81 98.36 111.814 99.099C111.81 99.7484 111.62 100.322 111.243 100.819C110.872 101.311 110.354 101.697 109.692 101.974C109.029 102.252 108.267 102.391 107.407 102.391C106.144 102.391 105.128 102.127 104.357 101.598C103.587 101.065 103.128 100.324 102.98 99.3744L105.352 99.146C105.459 99.6118 105.688 99.9634 106.037 100.201C106.386 100.438 106.841 100.557 107.401 100.557C107.978 100.557 108.442 100.438 108.791 100.201C109.145 99.9634 109.322 99.67 109.322 99.3207C109.322 99.0251 109.208 98.781 108.979 98.5884C108.755 98.3958 108.406 98.248 107.931 98.145L106.171 97.7755C105.181 97.5695 104.449 97.2224 103.974 96.7342C103.5 96.2416 103.265 95.619 103.269 94.8666C103.265 94.2306 103.437 93.6797 103.786 93.214C104.14 92.7437 104.631 92.3809 105.258 92.1256C105.889 91.8659 106.617 91.736 107.441 91.736C108.65 91.736 109.602 91.9935 110.296 92.5086C110.995 93.0236 111.427 93.7201 111.593 94.5979Z" fill="black"/>
<path d="M99.395 57.5009V78.8962C87.6305 78.8962 81.5655 77.8267 74.4337 68.1987C67.302 58.5707 62.6944 57.5007 56.6043 57.5007V78.8962H35.209V57.5007H56.6043V36.1055C67.5813 36.1055 74.4337 37.5318 81.5655 46.8032C88.6973 56.0746 92.4578 57.5009 99.395 57.5009V36.1055H120.79V57.5009H99.395Z" fill="black"/>
</svg>
