<svg width="48" height="39" viewBox="0 0 48 39" fill="none" xmlns="http://www.w3.org/2000/svg">
<path d="M12.9585 24.7559V31.5051H11.8709L8.69077 26.9079H8.63474V31.5051H7.41211V24.7559H8.50622L11.6831 29.3565H11.7424V24.7559H12.9585Z" fill="black"/>
<path d="M14.2379 31.5051V26.4432H15.4309V31.5051H14.2379ZM14.8377 25.7248C14.6488 25.7248 14.4862 25.6622 14.35 25.537C14.2138 25.4096 14.1457 25.2569 14.1457 25.0789C14.1457 24.8987 14.2138 24.7461 14.35 24.6208C14.4862 24.4934 14.6488 24.4297 14.8377 24.4297C15.0289 24.4297 15.1914 24.4934 15.3255 24.6208C15.4617 24.7461 15.5298 24.8987 15.5298 25.0789C15.5298 25.2569 15.4617 25.4096 15.3255 25.537C15.1914 25.6622 15.0289 25.7248 14.8377 25.7248Z" fill="black"/>
<path d="M16.6577 31.5051V26.4432H17.7979V27.3034H17.8572C17.9627 27.0134 18.1373 26.7871 18.3812 26.6245C18.6251 26.4597 18.9162 26.3773 19.2545 26.3773C19.5973 26.3773 19.8862 26.4608 20.1212 26.6278C20.3585 26.7926 20.5255 27.0178 20.6222 27.3034H20.6749C20.7869 27.0222 20.9759 26.7981 21.2417 26.6311C21.5098 26.4619 21.8272 26.3773 22.1941 26.3773C22.6599 26.3773 23.04 26.5245 23.3344 26.8189C23.6288 27.1133 23.776 27.5428 23.776 28.1075V31.5051H22.5797V28.292C22.5797 27.9779 22.4962 27.7483 22.3292 27.6033C22.1623 27.4561 21.9579 27.3825 21.7163 27.3825C21.4285 27.3825 21.2033 27.4725 21.0407 27.6527C20.8803 27.8307 20.8001 28.0624 20.8001 28.348V31.5051H19.6302V28.2426C19.6302 27.9811 19.5511 27.7724 19.3929 27.6164C19.237 27.4605 19.0326 27.3825 18.78 27.3825C18.6086 27.3825 18.4526 27.4264 18.312 27.5143C18.1714 27.6 18.0594 27.7219 17.9759 27.8801C17.8924 28.0361 17.8506 28.2184 17.8506 28.4271V31.5051H16.6577Z" fill="black"/>
<path d="M25.039 31.5051V24.7559H26.2319V27.2803H26.2814C26.3429 27.1573 26.4297 27.0265 26.5417 26.8881C26.6538 26.7475 26.8054 26.6278 26.9965 26.5289C27.1876 26.4279 27.4315 26.3773 27.7281 26.3773C28.1192 26.3773 28.4718 26.4773 28.786 26.6772C29.1023 26.875 29.3528 27.1683 29.5373 27.5571C29.7241 27.9438 29.8175 28.4184 29.8175 28.9808C29.8175 29.5366 29.7263 30.009 29.5439 30.3979C29.3616 30.7867 29.1133 31.0833 28.7991 31.2876C28.485 31.492 28.1291 31.5941 27.7314 31.5941C27.4414 31.5941 27.2008 31.5458 27.0097 31.4491C26.8185 31.3525 26.6648 31.236 26.5483 31.0998C26.4341 30.9614 26.3451 30.8307 26.2814 30.7076H26.2122V31.5051H25.039ZM26.2089 28.9742C26.2089 29.3016 26.255 29.5883 26.3473 29.8343C26.4418 30.0804 26.5769 30.2726 26.7526 30.411C26.9306 30.5473 27.1459 30.6154 27.3986 30.6154C27.6622 30.6154 27.883 30.5451 28.061 30.4044C28.2389 30.2616 28.3729 30.0672 28.463 29.8211C28.5553 29.5729 28.6014 29.2906 28.6014 28.9742C28.6014 28.66 28.5564 28.381 28.4663 28.1371C28.3762 27.8933 28.2422 27.7021 28.0642 27.5637C27.8863 27.4253 27.6644 27.3561 27.3986 27.3561C27.1437 27.3561 26.9273 27.4231 26.7493 27.5571C26.5714 27.6911 26.4363 27.879 26.344 28.1207C26.2539 28.3623 26.2089 28.6468 26.2089 28.9742Z" fill="black"/>
<path d="M34.058 29.3762V26.4432H35.2509V31.5051H34.0942V30.6055H34.0415C33.9272 30.8889 33.7394 31.1207 33.478 31.3008C33.2187 31.481 32.899 31.5711 32.519 31.5711C32.1872 31.5711 31.8939 31.4975 31.6391 31.3503C31.3864 31.2009 31.1887 30.9845 31.0459 30.701C30.9031 30.4154 30.8317 30.0705 30.8317 29.6663V26.4432H32.0246V29.4817C32.0246 29.8025 32.1125 30.0573 32.2883 30.2463C32.464 30.4352 32.6947 30.5297 32.9803 30.5297C33.1561 30.5297 33.3264 30.4868 33.4911 30.4012C33.6559 30.3155 33.791 30.188 33.8965 30.0189C34.0041 29.8475 34.058 29.6333 34.058 29.3762Z" fill="black"/>
<path d="M40.4784 27.7812L39.3909 27.8999C39.3602 27.79 39.3063 27.6868 39.2294 27.5901C39.1547 27.4934 39.0537 27.4154 38.9263 27.3561C38.7988 27.2968 38.6428 27.2671 38.4583 27.2671C38.21 27.2671 38.0013 27.3209 37.8321 27.4286C37.6652 27.5363 37.5828 27.6758 37.585 27.8471C37.5828 27.9943 37.6366 28.1141 37.7465 28.2063C37.8585 28.2986 38.0431 28.3744 38.3001 28.4337L39.1635 28.6183C39.6425 28.7215 39.9984 28.8852 40.2313 29.1093C40.4664 29.3334 40.585 29.6267 40.5872 29.9892C40.585 30.3078 40.4916 30.589 40.3071 30.8329C40.1247 31.0745 39.871 31.2635 39.5458 31.3997C39.2206 31.5359 38.8472 31.604 38.4253 31.604C37.8058 31.604 37.3071 31.4744 36.9292 31.2151C36.5513 30.9537 36.3261 30.5901 36.2536 30.1243L37.4169 30.0123C37.4696 30.2408 37.5817 30.4132 37.7531 30.5297C37.9244 30.6461 38.1474 30.7043 38.422 30.7043C38.7055 30.7043 38.9328 30.6461 39.1042 30.5297C39.2778 30.4132 39.3646 30.2693 39.3646 30.098C39.3646 29.953 39.3085 29.8332 39.1965 29.7388C39.0866 29.6443 38.9153 29.5718 38.6824 29.5213L37.819 29.34C37.3334 29.2389 36.9742 29.0687 36.7413 28.8292C36.5084 28.5875 36.3931 28.2821 36.3953 27.913C36.3931 27.6011 36.4777 27.3308 36.6491 27.1023C36.8226 26.8717 37.0632 26.6937 37.3708 26.5685C37.6805 26.441 38.0376 26.3773 38.4418 26.3773C39.035 26.3773 39.5019 26.5037 39.8424 26.7563C40.1851 27.009 40.3971 27.3506 40.4784 27.7812Z" fill="black"/>
<path d="M35.2364 14.9994C35.2364 17.1791 35.2364 20.5808 35.2364 20.5808C22.3167 20.5808 24.1788 14.9994 13.1673 14.9993C13.1673 17.179 13.1673 20.5808 13.1673 20.5808H7.65V14.9993C7.65 14.9993 2.15571 14.9993 13.1673 14.9993C13.1673 12.8197 13.1673 9.41797 13.1673 9.41797C25.9949 9.41797 24.1789 14.9994 35.2364 14.9994C35.2364 12.8197 35.2364 9.41797 35.2364 9.41797H40.7537V14.9994C40.7537 14.9994 37.391 14.9994 35.2364 14.9994Z" fill="black"/>
</svg>
